<?xml version="1.0" encoding="utf-8"?>
<svg xmlns="http://www.w3.org/2000/svg" xmlns:xlink="http://www.w3.org/1999/xlink" width="600" height="400" viewBox="0 0 2400 1600">
<defs>
  <clipPath id="clip600">
    <rect x="0" y="0" width="2400" height="1600"/>
  </clipPath>
</defs>
<path clip-path="url(#clip600)" d="M0 1600 L2400 1600 L2400 0 L0 0  Z" fill="#ffffff" fill-rule="evenodd" fill-opacity="1"/>
<defs>
  <clipPath id="clip601">
    <rect x="480" y="0" width="1681" height="1600"/>
  </clipPath>
</defs>
<path clip-path="url(#clip600)" d="M257.211 1401.58 L2352.76 1401.58 L2352.76 47.2441 L257.211 47.2441  Z" fill="#ffffff" fill-rule="evenodd" fill-opacity="1"/>
<defs>
  <clipPath id="clip602">
    <rect x="257" y="47" width="2097" height="1355"/>
  </clipPath>
</defs>
<polyline clip-path="url(#clip602)" style="stroke:#000000; stroke-linecap:round; stroke-linejoin:round; stroke-width:2; stroke-opacity:0.1; fill:none" points="287.013,1401.58 287.013,47.2441 "/>
<polyline clip-path="url(#clip602)" style="stroke:#000000; stroke-linecap:round; stroke-linejoin:round; stroke-width:2; stroke-opacity:0.1; fill:none" points="877.141,1401.58 877.141,47.2441 "/>
<polyline clip-path="url(#clip602)" style="stroke:#000000; stroke-linecap:round; stroke-linejoin:round; stroke-width:2; stroke-opacity:0.1; fill:none" points="1467.27,1401.58 1467.27,47.2441 "/>
<polyline clip-path="url(#clip602)" style="stroke:#000000; stroke-linecap:round; stroke-linejoin:round; stroke-width:2; stroke-opacity:0.1; fill:none" points="2057.4,1401.58 2057.4,47.2441 "/>
<polyline clip-path="url(#clip602)" style="stroke:#000000; stroke-linecap:round; stroke-linejoin:round; stroke-width:2; stroke-opacity:0.1; fill:none" points="257.211,1401.58 2352.76,1401.58 "/>
<polyline clip-path="url(#clip602)" style="stroke:#000000; stroke-linecap:round; stroke-linejoin:round; stroke-width:2; stroke-opacity:0.1; fill:none" points="257.211,724.412 2352.76,724.412 "/>
<polyline clip-path="url(#clip602)" style="stroke:#000000; stroke-linecap:round; stroke-linejoin:round; stroke-width:2; stroke-opacity:0.1; fill:none" points="257.211,47.2441 2352.76,47.2441 "/>
<polyline clip-path="url(#clip600)" style="stroke:#000000; stroke-linecap:round; stroke-linejoin:round; stroke-width:4; stroke-opacity:1; fill:none" points="257.211,1401.58 2352.76,1401.58 "/>
<polyline clip-path="url(#clip600)" style="stroke:#000000; stroke-linecap:round; stroke-linejoin:round; stroke-width:4; stroke-opacity:1; fill:none" points="287.013,1401.58 287.013,1382.68 "/>
<polyline clip-path="url(#clip600)" style="stroke:#000000; stroke-linecap:round; stroke-linejoin:round; stroke-width:4; stroke-opacity:1; fill:none" points="877.141,1401.58 877.141,1382.68 "/>
<polyline clip-path="url(#clip600)" style="stroke:#000000; stroke-linecap:round; stroke-linejoin:round; stroke-width:4; stroke-opacity:1; fill:none" points="1467.27,1401.58 1467.27,1382.68 "/>
<polyline clip-path="url(#clip600)" style="stroke:#000000; stroke-linecap:round; stroke-linejoin:round; stroke-width:4; stroke-opacity:1; fill:none" points="2057.4,1401.58 2057.4,1382.68 "/>
<path clip-path="url(#clip600)" d="M264.397 1432.5 Q260.786 1432.5 258.957 1436.06 Q257.152 1439.6 257.152 1446.73 Q257.152 1453.84 258.957 1457.41 Q260.786 1460.95 264.397 1460.95 Q268.031 1460.95 269.837 1457.41 Q271.665 1453.84 271.665 1446.73 Q271.665 1439.6 269.837 1436.06 Q268.031 1432.5 264.397 1432.5 M264.397 1428.79 Q270.207 1428.79 273.263 1433.4 Q276.341 1437.98 276.341 1446.73 Q276.341 1455.46 273.263 1460.07 Q270.207 1464.65 264.397 1464.65 Q258.587 1464.65 255.508 1460.07 Q252.453 1455.46 252.453 1446.73 Q252.453 1437.98 255.508 1433.4 Q258.587 1428.79 264.397 1428.79 Z" fill="#000000" fill-rule="nonzero" fill-opacity="1" /><path clip-path="url(#clip600)" d="M284.559 1458.1 L289.443 1458.1 L289.443 1463.98 L284.559 1463.98 L284.559 1458.1 Z" fill="#000000" fill-rule="nonzero" fill-opacity="1" /><path clip-path="url(#clip600)" d="M309.628 1432.5 Q306.017 1432.5 304.188 1436.06 Q302.383 1439.6 302.383 1446.73 Q302.383 1453.84 304.188 1457.41 Q306.017 1460.95 309.628 1460.95 Q313.262 1460.95 315.068 1457.41 Q316.897 1453.84 316.897 1446.73 Q316.897 1439.6 315.068 1436.06 Q313.262 1432.5 309.628 1432.5 M309.628 1428.79 Q315.438 1428.79 318.494 1433.4 Q321.573 1437.98 321.573 1446.73 Q321.573 1455.46 318.494 1460.07 Q315.438 1464.65 309.628 1464.65 Q303.818 1464.65 300.739 1460.07 Q297.684 1455.46 297.684 1446.73 Q297.684 1437.98 300.739 1433.4 Q303.818 1428.79 309.628 1428.79 Z" fill="#000000" fill-rule="nonzero" fill-opacity="1" /><path clip-path="url(#clip600)" d="M855.324 1432.5 Q851.713 1432.5 849.884 1436.06 Q848.078 1439.6 848.078 1446.73 Q848.078 1453.84 849.884 1457.41 Q851.713 1460.95 855.324 1460.95 Q858.958 1460.95 860.763 1457.41 Q862.592 1453.84 862.592 1446.73 Q862.592 1439.6 860.763 1436.06 Q858.958 1432.5 855.324 1432.5 M855.324 1428.79 Q861.134 1428.79 864.189 1433.4 Q867.268 1437.98 867.268 1446.73 Q867.268 1455.46 864.189 1460.07 Q861.134 1464.65 855.324 1464.65 Q849.514 1464.65 846.435 1460.07 Q843.379 1455.46 843.379 1446.73 Q843.379 1437.98 846.435 1433.4 Q849.514 1428.79 855.324 1428.79 Z" fill="#000000" fill-rule="nonzero" fill-opacity="1" /><path clip-path="url(#clip600)" d="M875.486 1458.1 L880.37 1458.1 L880.37 1463.98 L875.486 1463.98 L875.486 1458.1 Z" fill="#000000" fill-rule="nonzero" fill-opacity="1" /><path clip-path="url(#clip600)" d="M894.583 1460.04 L910.902 1460.04 L910.902 1463.98 L888.958 1463.98 L888.958 1460.04 Q891.62 1457.29 896.203 1452.66 Q900.81 1448.01 901.99 1446.67 Q904.235 1444.14 905.115 1442.41 Q906.018 1440.65 906.018 1438.96 Q906.018 1436.2 904.073 1434.47 Q902.152 1432.73 899.05 1432.73 Q896.851 1432.73 894.398 1433.49 Q891.967 1434.26 889.189 1435.81 L889.189 1431.09 Q892.013 1429.95 894.467 1429.37 Q896.921 1428.79 898.958 1428.79 Q904.328 1428.79 907.522 1431.48 Q910.717 1434.17 910.717 1438.66 Q910.717 1440.79 909.907 1442.71 Q909.12 1444.6 907.013 1447.2 Q906.434 1447.87 903.333 1451.09 Q900.231 1454.28 894.583 1460.04 Z" fill="#000000" fill-rule="nonzero" fill-opacity="1" /><path clip-path="url(#clip600)" d="M1444.41 1432.5 Q1440.8 1432.5 1438.97 1436.06 Q1437.16 1439.6 1437.16 1446.73 Q1437.16 1453.84 1438.97 1457.41 Q1440.8 1460.95 1444.41 1460.95 Q1448.04 1460.95 1449.85 1457.41 Q1451.68 1453.84 1451.68 1446.73 Q1451.68 1439.6 1449.85 1436.06 Q1448.04 1432.5 1444.41 1432.5 M1444.41 1428.79 Q1450.22 1428.79 1453.28 1433.4 Q1456.35 1437.98 1456.35 1446.73 Q1456.35 1455.46 1453.28 1460.07 Q1450.22 1464.65 1444.41 1464.65 Q1438.6 1464.65 1435.52 1460.07 Q1432.47 1455.46 1432.47 1446.73 Q1432.47 1437.98 1435.52 1433.4 Q1438.6 1428.79 1444.41 1428.79 Z" fill="#000000" fill-rule="nonzero" fill-opacity="1" /><path clip-path="url(#clip600)" d="M1464.57 1458.1 L1469.46 1458.1 L1469.46 1463.98 L1464.57 1463.98 L1464.57 1458.1 Z" fill="#000000" fill-rule="nonzero" fill-opacity="1" /><path clip-path="url(#clip600)" d="M1492.49 1433.49 L1480.68 1451.94 L1492.49 1451.94 L1492.49 1433.49 M1491.26 1429.42 L1497.14 1429.42 L1497.14 1451.94 L1502.07 1451.94 L1502.07 1455.83 L1497.14 1455.83 L1497.14 1463.98 L1492.49 1463.98 L1492.49 1455.83 L1476.89 1455.83 L1476.89 1451.32 L1491.26 1429.42 Z" fill="#000000" fill-rule="nonzero" fill-opacity="1" /><path clip-path="url(#clip600)" d="M2034.7 1432.5 Q2031.09 1432.5 2029.26 1436.06 Q2027.45 1439.6 2027.45 1446.73 Q2027.45 1453.84 2029.26 1457.41 Q2031.09 1460.95 2034.7 1460.95 Q2038.33 1460.95 2040.14 1457.41 Q2041.97 1453.84 2041.97 1446.73 Q2041.97 1439.6 2040.14 1436.06 Q2038.33 1432.5 2034.7 1432.5 M2034.7 1428.79 Q2040.51 1428.79 2043.57 1433.4 Q2046.64 1437.98 2046.64 1446.73 Q2046.64 1455.46 2043.57 1460.07 Q2040.51 1464.65 2034.7 1464.65 Q2028.89 1464.65 2025.81 1460.07 Q2022.76 1455.46 2022.76 1446.73 Q2022.76 1437.98 2025.81 1433.4 Q2028.89 1428.79 2034.7 1428.79 Z" fill="#000000" fill-rule="nonzero" fill-opacity="1" /><path clip-path="url(#clip600)" d="M2054.86 1458.1 L2059.75 1458.1 L2059.75 1463.98 L2054.86 1463.98 L2054.86 1458.1 Z" fill="#000000" fill-rule="nonzero" fill-opacity="1" /><path clip-path="url(#clip600)" d="M2080.51 1444.84 Q2077.36 1444.84 2075.51 1446.99 Q2073.68 1449.14 2073.68 1452.89 Q2073.68 1456.62 2075.51 1458.79 Q2077.36 1460.95 2080.51 1460.95 Q2083.66 1460.95 2085.49 1458.79 Q2087.34 1456.62 2087.34 1452.89 Q2087.34 1449.14 2085.49 1446.99 Q2083.66 1444.84 2080.51 1444.84 M2089.79 1430.18 L2089.79 1434.44 Q2088.03 1433.61 2086.23 1433.17 Q2084.45 1432.73 2082.69 1432.73 Q2078.06 1432.73 2075.6 1435.85 Q2073.17 1438.98 2072.82 1445.3 Q2074.19 1443.29 2076.25 1442.22 Q2078.31 1441.13 2080.79 1441.13 Q2086 1441.13 2089.01 1444.3 Q2092.04 1447.45 2092.04 1452.89 Q2092.04 1458.22 2088.89 1461.43 Q2085.74 1464.65 2080.51 1464.65 Q2074.51 1464.65 2071.34 1460.07 Q2068.17 1455.46 2068.17 1446.73 Q2068.17 1438.54 2072.06 1433.68 Q2075.95 1428.79 2082.5 1428.79 Q2084.26 1428.79 2086.04 1429.14 Q2087.85 1429.49 2089.79 1430.18 Z" fill="#000000" fill-rule="nonzero" fill-opacity="1" /><path clip-path="url(#clip600)" d="M1040.03 1554.65 L1040.03 1551.7 L1042.32 1551.7 Q1047.52 1551.7 1048.69 1550.86 Q1049.91 1549.97 1049.91 1547.15 L1049.91 1496.89 Q1049.91 1494.13 1048.69 1493.28 Q1047.48 1492.39 1042.32 1492.39 L1040.03 1492.39 L1040.03 1489.39 L1094.04 1489.39 L1096.71 1510.99 L1094.32 1510.99 Q1093.66 1505.51 1092.77 1502.37 Q1091.93 1499.19 1089.82 1496.75 Q1087.76 1494.31 1084.34 1493.38 Q1080.97 1492.39 1075.49 1492.39 L1063.12 1492.39 Q1059.84 1492.39 1059.14 1493.1 Q1058.44 1493.75 1058.44 1496.23 L1058.44 1519.23 L1067.06 1519.23 Q1073.66 1519.23 1075.54 1516.94 Q1077.41 1514.64 1077.41 1508.04 L1079.85 1508.04 L1079.85 1533.43 L1077.41 1533.43 Q1077.41 1526.92 1075.54 1524.58 Q1073.66 1522.23 1067.06 1522.23 L1058.44 1522.23 L1058.44 1547.86 Q1058.44 1550.34 1059.14 1551.04 Q1059.89 1551.7 1063.12 1551.7 L1075.91 1551.7 Q1080.03 1551.7 1083.03 1551.18 Q1086.08 1550.62 1088.18 1549.31 Q1090.29 1547.95 1091.7 1546.4 Q1093.15 1544.86 1094.13 1542.1 Q1095.16 1539.28 1095.73 1536.71 Q1096.34 1534.13 1096.99 1529.92 L1099.38 1529.92 L1095.35 1554.65 L1040.03 1554.65 Z" fill="#000000" fill-rule="nonzero" fill-opacity="1" /><path clip-path="url(#clip600)" d="M1108.06 1554.65 L1108.06 1551.7 Q1113.17 1551.7 1114.34 1551.09 Q1115.51 1550.43 1115.51 1547.34 L1115.51 1521.62 Q1115.51 1518.06 1114.25 1517.17 Q1113.03 1516.28 1108.06 1516.28 L1108.06 1513.29 L1121.56 1512.26 L1121.56 1522.33 Q1126.05 1512.26 1135.75 1512.26 Q1142.96 1512.26 1145.82 1515.82 Q1147.93 1518.2 1148.35 1520.87 Q1148.82 1523.54 1148.82 1530.48 L1148.82 1548.79 Q1148.91 1550.81 1150.46 1551.28 Q1152.01 1551.7 1156.31 1551.7 L1156.31 1554.65 Q1146.52 1554.37 1145.54 1554.37 Q1144.79 1554.37 1134.72 1554.65 L1134.72 1551.7 Q1139.83 1551.7 1141 1551.09 Q1142.21 1550.43 1142.21 1547.34 L1142.21 1525 Q1142.21 1520.12 1140.72 1517.27 Q1139.22 1514.36 1135.09 1514.36 Q1130.13 1514.36 1126.15 1518.53 Q1122.16 1522.7 1122.16 1529.73 L1122.16 1547.34 Q1122.16 1550.43 1123.34 1551.09 Q1124.55 1551.7 1129.61 1551.7 L1129.61 1554.65 Q1119.82 1554.37 1118.89 1554.37 Q1118.14 1554.37 1108.06 1554.65 Z" fill="#000000" fill-rule="nonzero" fill-opacity="1" /><path clip-path="url(#clip600)" d="M1163.46 1533.52 Q1163.46 1524.48 1169.27 1518.06 Q1175.07 1511.65 1183.41 1511.65 Q1191.84 1511.65 1196.2 1517.13 Q1200.6 1522.61 1200.6 1530.48 Q1200.6 1531.93 1200.23 1532.21 Q1199.85 1532.49 1198.22 1532.49 L1171.42 1532.49 Q1171.42 1542.28 1174.32 1546.87 Q1178.35 1553.29 1185.15 1553.29 Q1186.08 1553.29 1187.21 1553.1 Q1188.33 1552.92 1190.63 1552.12 Q1192.92 1551.28 1194.94 1549.08 Q1196.95 1546.87 1198.12 1543.41 Q1198.4 1542.05 1199.34 1542.1 Q1200.6 1542.1 1200.6 1543.22 Q1200.6 1544.06 1199.67 1545.98 Q1198.78 1547.86 1197.04 1550.11 Q1195.31 1552.35 1191.94 1554.04 Q1188.61 1555.73 1184.58 1555.73 Q1176.15 1555.73 1169.78 1549.36 Q1163.46 1542.94 1163.46 1533.52 M1171.51 1530.48 L1194.28 1530.48 Q1194.28 1528.46 1193.91 1526.21 Q1193.58 1523.97 1192.55 1520.87 Q1191.56 1517.74 1189.22 1515.77 Q1186.88 1513.8 1183.41 1513.8 Q1181.87 1513.8 1180.18 1514.46 Q1178.54 1515.11 1176.53 1516.71 Q1174.51 1518.3 1173.11 1521.91 Q1171.7 1525.51 1171.51 1530.48 Z" fill="#000000" fill-rule="nonzero" fill-opacity="1" /><path clip-path="url(#clip600)" d="M1203.71 1554.65 L1203.71 1551.7 Q1208.82 1551.7 1209.99 1551.09 Q1211.2 1550.43 1211.2 1547.34 L1211.2 1521.62 Q1211.2 1518.06 1209.94 1517.17 Q1208.72 1516.28 1203.71 1516.28 L1203.71 1513.29 L1217.06 1512.26 L1217.06 1522.8 Q1218.42 1518.67 1221.28 1515.49 Q1224.18 1512.26 1228.86 1512.26 Q1231.96 1512.26 1233.92 1513.99 Q1235.94 1515.72 1235.94 1518.11 Q1235.94 1520.22 1234.63 1521.3 Q1233.36 1522.33 1231.82 1522.33 Q1230.08 1522.33 1228.86 1521.25 Q1227.69 1520.12 1227.69 1518.2 Q1227.69 1517.03 1228.21 1516.14 Q1228.77 1515.21 1229.19 1514.88 Q1229.61 1514.55 1229.9 1514.46 Q1229.71 1514.36 1228.86 1514.36 Q1223.57 1514.36 1220.53 1519.66 Q1217.53 1524.9 1217.53 1532.4 L1217.53 1547.15 Q1217.53 1549.92 1218.65 1550.81 Q1219.82 1551.7 1224.84 1551.7 L1226.85 1551.7 L1226.85 1554.65 Q1223.01 1554.37 1214.67 1554.37 Q1213.5 1554.37 1211.67 1554.42 Q1209.85 1554.46 1207.46 1554.56 Q1205.07 1554.65 1203.71 1554.65 Z" fill="#000000" fill-rule="nonzero" fill-opacity="1" /><path clip-path="url(#clip600)" d="M1239.18 1562.24 Q1239.18 1559.15 1241.52 1556.48 Q1243.91 1553.81 1248.04 1552.64 Q1243.82 1549.97 1243.82 1544.11 Q1243.82 1539.61 1246.77 1536.15 Q1242.27 1532.4 1242.27 1526.26 Q1242.27 1520.59 1246.77 1516.42 Q1251.27 1512.26 1257.83 1512.26 Q1263.59 1512.26 1267.99 1515.72 Q1272.58 1511.22 1278.16 1511.18 Q1280.64 1511.18 1281.81 1512.72 Q1283.03 1514.27 1283.03 1515.91 Q1283.03 1517.36 1282.09 1518.06 Q1281.2 1518.77 1280.26 1518.77 Q1279.09 1518.77 1278.25 1518.02 Q1277.45 1517.22 1277.45 1516 Q1277.45 1513.99 1279 1513.38 Q1278.72 1513.29 1278.06 1513.29 Q1273.38 1513.29 1269.4 1517.03 Q1273.33 1520.69 1273.33 1526.36 Q1273.33 1532.02 1268.83 1536.19 Q1264.34 1540.36 1257.83 1540.36 Q1252.44 1540.36 1248.32 1537.36 Q1246.68 1539.28 1246.68 1541.91 Q1246.68 1544.3 1248.13 1546.17 Q1249.58 1548.04 1251.78 1548.33 Q1252.44 1548.42 1258.95 1548.42 Q1262.79 1548.42 1264.9 1548.51 Q1267.01 1548.61 1270.01 1549.26 Q1273.05 1549.87 1275.44 1551.09 Q1281.67 1554.56 1281.72 1562.05 Q1281.72 1567.53 1275.39 1570.95 Q1269.12 1574.42 1260.4 1574.42 Q1251.6 1574.42 1245.36 1570.9 Q1239.18 1567.44 1239.18 1562.24 M1244.19 1562.24 Q1244.19 1566.17 1248.83 1569.17 Q1253.47 1572.22 1260.5 1572.22 Q1267.38 1572.22 1272.02 1569.22 Q1276.7 1566.27 1276.7 1562.24 Q1276.7 1559.38 1275.06 1557.55 Q1273.43 1555.73 1270.05 1554.98 Q1266.73 1554.27 1264.38 1554.13 Q1262.04 1553.99 1257.73 1553.99 L1252.06 1553.99 Q1248.78 1554.18 1246.49 1556.57 Q1244.19 1558.96 1244.19 1562.24 M1249.44 1526.36 Q1249.44 1538.16 1257.83 1538.16 Q1262.04 1538.16 1264.62 1534.32 Q1266.16 1531.74 1266.16 1526.26 Q1266.16 1514.46 1257.83 1514.46 Q1253.61 1514.46 1250.99 1518.3 Q1249.44 1520.87 1249.44 1526.36 Z" fill="#000000" fill-rule="nonzero" fill-opacity="1" /><path clip-path="url(#clip600)" d="M1292.83 1566.55 Q1292.83 1564.53 1294 1563.46 Q1295.22 1562.43 1296.86 1562.43 Q1298.6 1562.43 1299.72 1563.5 Q1300.89 1564.63 1300.89 1566.45 Q1300.89 1570.01 1297.14 1570.48 Q1298.97 1572.22 1301.64 1572.22 Q1304.5 1572.22 1306.79 1570.11 Q1309.14 1568 1310.12 1565.99 Q1311.15 1563.97 1312.6 1560.32 Q1313.96 1557.46 1314.99 1554.65 L1300.61 1519.61 Q1299.67 1517.31 1298.22 1516.8 Q1296.77 1516.28 1292.83 1516.28 L1292.83 1513.29 Q1297.14 1513.57 1302.16 1513.57 Q1305.11 1513.57 1312.6 1513.29 L1312.6 1516.28 Q1307.21 1516.28 1307.21 1518.77 Q1307.21 1519.05 1307.78 1520.5 L1318.46 1546.31 L1328.15 1522.7 Q1328.72 1521.34 1328.72 1520.41 Q1328.72 1516.47 1324.22 1516.28 L1324.22 1513.29 Q1330.54 1513.57 1332.56 1513.57 Q1336.49 1513.57 1339.72 1513.29 L1339.72 1516.28 Q1333.31 1516.28 1330.82 1522.42 L1313.91 1563.36 Q1309.32 1574.28 1301.64 1574.32 Q1297.99 1574.32 1295.41 1572.08 Q1292.83 1569.83 1292.83 1566.55 Z" fill="#000000" fill-rule="nonzero" fill-opacity="1" /><path clip-path="url(#clip600)" d="M1364.02 1530.67 Q1364.02 1514.46 1370.06 1501.39 Q1372.63 1495.91 1376.24 1491.32 Q1379.85 1486.72 1382.24 1484.71 Q1384.63 1482.7 1385.28 1482.7 Q1386.22 1482.7 1386.27 1483.63 Q1386.27 1484.1 1385 1485.27 Q1369.54 1501.01 1369.59 1530.67 Q1369.59 1560.41 1384.63 1575.54 Q1386.27 1577.18 1386.27 1577.7 Q1386.27 1578.63 1385.28 1578.63 Q1384.63 1578.63 1382.33 1576.71 Q1380.04 1574.79 1376.48 1570.39 Q1372.92 1565.99 1370.34 1560.6 Q1364.02 1547.53 1364.02 1530.67 Z" fill="#000000" fill-rule="nonzero" fill-opacity="1" /><path clip-path="url(#clip600)" d="M1395.48 1533.52 Q1395.48 1524.48 1401.28 1518.06 Q1407.09 1511.65 1415.43 1511.65 Q1423.86 1511.65 1428.22 1517.13 Q1432.62 1522.61 1432.62 1530.48 Q1432.62 1531.93 1432.25 1532.21 Q1431.87 1532.49 1430.24 1532.49 L1403.44 1532.49 Q1403.44 1542.28 1406.34 1546.87 Q1410.37 1553.29 1417.17 1553.29 Q1418.1 1553.29 1419.23 1553.1 Q1420.35 1552.92 1422.65 1552.12 Q1424.94 1551.28 1426.96 1549.08 Q1428.97 1546.87 1430.14 1543.41 Q1430.42 1542.05 1431.36 1542.1 Q1432.62 1542.1 1432.62 1543.22 Q1432.62 1544.06 1431.69 1545.98 Q1430.8 1547.86 1429.06 1550.11 Q1427.33 1552.35 1423.96 1554.04 Q1420.63 1555.73 1416.6 1555.73 Q1408.17 1555.73 1401.8 1549.36 Q1395.48 1542.94 1395.48 1533.52 M1403.53 1530.48 L1426.3 1530.48 Q1426.3 1528.46 1425.93 1526.21 Q1425.6 1523.97 1424.57 1520.87 Q1423.58 1517.74 1421.24 1515.77 Q1418.9 1513.8 1415.43 1513.8 Q1413.89 1513.8 1412.2 1514.46 Q1410.56 1515.11 1408.55 1516.71 Q1406.53 1518.3 1405.13 1521.91 Q1403.72 1525.51 1403.53 1530.48 Z" fill="#000000" fill-rule="nonzero" fill-opacity="1" /><path clip-path="url(#clip600)" d="M1439.57 1492.11 L1439.57 1489.11 Q1449.92 1489.39 1451.75 1489.39 Q1462.01 1489.39 1465.47 1489.11 L1465.47 1492.11 Q1457.6 1492.11 1457.6 1494.88 Q1457.6 1495.25 1458.17 1496.61 L1476.48 1545.05 L1494.05 1498.81 Q1494.52 1497.36 1494.52 1496.89 Q1494.52 1494.97 1492.74 1493.61 Q1491 1492.21 1487.54 1492.11 L1487.54 1489.11 Q1495.03 1489.39 1498.45 1489.39 Q1503.32 1489.39 1507.77 1489.11 L1507.77 1492.11 Q1499.72 1492.21 1497.33 1498.53 L1475.92 1554.93 Q1475.55 1556.1 1475.17 1556.43 Q1474.8 1556.76 1473.62 1556.76 Q1472.69 1556.76 1472.17 1556.38 Q1471.7 1556.01 1471.24 1554.65 L1448.98 1495.77 Q1448.05 1493.19 1446.36 1492.67 Q1444.67 1492.11 1439.57 1492.11 Z" fill="#000000" fill-rule="nonzero" fill-opacity="1" /><path clip-path="url(#clip600)" d="M1533.1 1577.7 Q1533.1 1577.23 1534.32 1576.06 Q1549.78 1560.32 1549.78 1530.67 Q1549.78 1500.92 1534.93 1485.88 Q1533.1 1484.15 1533.1 1483.63 Q1533.1 1482.7 1534.04 1482.7 Q1534.7 1482.7 1536.99 1484.62 Q1539.33 1486.54 1542.85 1490.94 Q1546.41 1495.34 1549.03 1500.73 Q1555.35 1513.8 1555.35 1530.67 Q1555.35 1546.87 1549.31 1559.94 Q1546.73 1565.42 1543.13 1570.01 Q1539.52 1574.61 1537.13 1576.62 Q1534.74 1578.63 1534.04 1578.63 Q1533.1 1578.63 1533.1 1577.7 Z" fill="#000000" fill-rule="nonzero" fill-opacity="1" /><polyline clip-path="url(#clip600)" style="stroke:#000000; stroke-linecap:round; stroke-linejoin:round; stroke-width:4; stroke-opacity:1; fill:none" points="257.211,1401.58 257.211,47.2441 "/>
<polyline clip-path="url(#clip600)" style="stroke:#000000; stroke-linecap:round; stroke-linejoin:round; stroke-width:4; stroke-opacity:1; fill:none" points="257.211,1401.58 276.109,1401.58 "/>
<polyline clip-path="url(#clip600)" style="stroke:#000000; stroke-linecap:round; stroke-linejoin:round; stroke-width:4; stroke-opacity:1; fill:none" points="257.211,724.412 276.109,724.412 "/>
<polyline clip-path="url(#clip600)" style="stroke:#000000; stroke-linecap:round; stroke-linejoin:round; stroke-width:4; stroke-opacity:1; fill:none" points="257.211,47.2441 276.109,47.2441 "/>
<path clip-path="url(#clip600)" d="M153.195 1421.37 L160.834 1421.37 L160.834 1395.01 L152.524 1396.67 L152.524 1392.41 L160.788 1390.75 L165.463 1390.75 L165.463 1421.37 L173.102 1421.37 L173.102 1425.31 L153.195 1425.31 L153.195 1421.37 Z" fill="#000000" fill-rule="nonzero" fill-opacity="1" /><path clip-path="url(#clip600)" d="M192.547 1393.83 Q188.936 1393.83 187.107 1397.39 Q185.301 1400.93 185.301 1408.06 Q185.301 1415.17 187.107 1418.73 Q188.936 1422.28 192.547 1422.28 Q196.181 1422.28 197.986 1418.73 Q199.815 1415.17 199.815 1408.06 Q199.815 1400.93 197.986 1397.39 Q196.181 1393.83 192.547 1393.83 M192.547 1390.12 Q198.357 1390.12 201.412 1394.73 Q204.491 1399.31 204.491 1408.06 Q204.491 1416.79 201.412 1421.4 Q198.357 1425.98 192.547 1425.98 Q186.736 1425.98 183.658 1421.4 Q180.602 1416.79 180.602 1408.06 Q180.602 1399.31 183.658 1394.73 Q186.736 1390.12 192.547 1390.12 Z" fill="#000000" fill-rule="nonzero" fill-opacity="1" /><path clip-path="url(#clip600)" d="M205.036 1394.7 L211.243 1394.7 L211.243 1373.28 L204.491 1374.63 L204.491 1371.17 L211.205 1369.82 L215.005 1369.82 L215.005 1394.7 L221.211 1394.7 L221.211 1397.9 L205.036 1397.9 L205.036 1394.7 Z" fill="#000000" fill-rule="nonzero" fill-opacity="1" /><path clip-path="url(#clip600)" d="M152.085 744.204 L159.724 744.204 L159.724 717.839 L151.414 719.505 L151.414 715.246 L159.678 713.58 L164.354 713.58 L164.354 744.204 L171.993 744.204 L171.993 748.14 L152.085 748.14 L152.085 744.204 Z" fill="#000000" fill-rule="nonzero" fill-opacity="1" /><path clip-path="url(#clip600)" d="M191.437 716.658 Q187.826 716.658 185.997 720.223 Q184.192 723.765 184.192 730.894 Q184.192 738.001 185.997 741.566 Q187.826 745.107 191.437 745.107 Q195.071 745.107 196.877 741.566 Q198.705 738.001 198.705 730.894 Q198.705 723.765 196.877 720.223 Q195.071 716.658 191.437 716.658 M191.437 712.955 Q197.247 712.955 200.303 717.561 Q203.381 722.144 203.381 730.894 Q203.381 739.621 200.303 744.228 Q197.247 748.811 191.437 748.811 Q185.627 748.811 182.548 744.228 Q179.493 739.621 179.493 730.894 Q179.493 722.144 182.548 717.561 Q185.627 712.955 191.437 712.955 Z" fill="#000000" fill-rule="nonzero" fill-opacity="1" /><path clip-path="url(#clip600)" d="M207.952 717.532 L221.211 717.532 L221.211 720.729 L203.381 720.729 L203.381 717.532 Q205.544 715.294 209.268 711.532 Q213.011 707.752 213.97 706.661 Q215.794 704.611 216.509 703.2 Q217.243 701.771 217.243 700.398 Q217.243 698.16 215.663 696.749 Q214.102 695.339 211.582 695.339 Q209.795 695.339 207.801 695.959 Q205.826 696.58 203.569 697.84 L203.569 694.003 Q205.864 693.082 207.858 692.612 Q209.851 692.141 211.506 692.141 Q215.87 692.141 218.465 694.323 Q221.061 696.505 221.061 700.153 Q221.061 701.884 220.402 703.445 Q219.763 704.987 218.051 707.094 Q217.581 707.639 215.061 710.253 Q212.541 712.849 207.952 717.532 Z" fill="#000000" fill-rule="nonzero" fill-opacity="1" /><path clip-path="url(#clip600)" d="M151.427 67.0365 L159.066 67.0365 L159.066 40.6709 L150.756 42.3376 L150.756 38.0784 L159.02 36.4117 L163.696 36.4117 L163.696 67.0365 L171.334 67.0365 L171.334 70.9717 L151.427 70.9717 L151.427 67.0365 Z" fill="#000000" fill-rule="nonzero" fill-opacity="1" /><path clip-path="url(#clip600)" d="M190.779 39.4904 Q187.168 39.4904 185.339 43.0552 Q183.533 46.5968 183.533 53.7264 Q183.533 60.8329 185.339 64.3977 Q187.168 67.9393 190.779 67.9393 Q194.413 67.9393 196.219 64.3977 Q198.047 60.8329 198.047 53.7264 Q198.047 46.5968 196.219 43.0552 Q194.413 39.4904 190.779 39.4904 M190.779 35.7867 Q196.589 35.7867 199.644 40.3932 Q202.723 44.9765 202.723 53.7264 Q202.723 62.4532 199.644 67.0597 Q196.589 71.643 190.779 71.643 Q184.969 71.643 181.89 67.0597 Q178.834 62.4532 178.834 53.7264 Q178.834 44.9765 181.89 40.3932 Q184.969 35.7867 190.779 35.7867 Z" fill="#000000" fill-rule="nonzero" fill-opacity="1" /><path clip-path="url(#clip600)" d="M215.418 28.421 Q218.145 29.0041 219.669 30.8472 Q221.211 32.6904 221.211 35.3987 Q221.211 39.5552 218.352 41.831 Q215.494 44.1067 210.227 44.1067 Q208.459 44.1067 206.579 43.7494 Q204.717 43.4108 202.723 42.7149 L202.723 39.0474 Q204.303 39.969 206.184 40.4392 Q208.065 40.9094 210.115 40.9094 Q213.688 40.9094 215.55 39.4988 Q217.431 38.0882 217.431 35.3987 Q217.431 32.9161 215.682 31.5243 Q213.951 30.1137 210.848 30.1137 L207.576 30.1137 L207.576 26.9916 L210.999 26.9916 Q213.801 26.9916 215.287 25.882 Q216.773 24.7535 216.773 22.6471 Q216.773 20.4842 215.23 19.3369 Q213.707 18.1708 210.848 18.1708 Q209.287 18.1708 207.5 18.5093 Q205.714 18.8479 203.569 19.5626 L203.569 16.1772 Q205.732 15.5753 207.613 15.2744 Q209.513 14.9735 211.187 14.9735 Q215.512 14.9735 218.033 16.9483 Q220.553 18.9043 220.553 22.2521 Q220.553 24.5843 219.218 26.2017 Q217.882 27.8004 215.418 28.421 Z" fill="#000000" fill-rule="nonzero" fill-opacity="1" /><path clip-path="url(#clip600)" d="M66.8817 855.249 Q67.3502 855.343 68.1934 855.53 Q68.9898 855.717 71.5194 856.56 Q74.049 857.404 76.6255 858.528 Q79.1551 859.605 82.7153 861.713 Q86.2287 863.775 89.4141 866.304 Q90.2573 867.007 90.7726 867.147 Q91.2411 867.241 92.787 867.241 Q102.531 867.241 102.531 864.29 Q102.531 864.149 102.531 863.915 Q102.484 863.634 102.25 862.931 Q101.969 862.182 101.547 861.526 Q101.079 860.87 100.142 860.121 Q99.1579 859.371 97.8462 858.903 Q96.9093 858.481 96.9093 857.638 Q96.9093 856.514 97.8462 856.514 Q99.5326 856.514 102.109 858.856 Q104.686 861.198 104.686 864.571 Q104.686 867.803 102.578 870.099 Q100.423 872.347 96.5814 873.284 Q104.686 883.403 104.686 893.521 Q104.686 900.642 100.048 904.858 Q95.3634 909.074 88.4304 909.074 Q81.7784 909.074 75.4543 905.42 Q69.1303 901.719 65.1953 895.723 Q61.2135 889.68 61.2135 883.262 Q61.2135 881.014 61.8225 878.859 Q62.3846 876.704 63.8368 874.549 Q65.289 872.394 67.4907 870.801 Q69.6924 869.209 73.1589 868.225 Q76.6255 867.241 80.982 867.241 L86.9313 867.241 Q79.1082 861.058 67.9123 857.825 Q66.2259 857.357 66.0385 857.076 Q65.898 856.888 65.898 856.42 Q65.898 855.952 66.1791 855.67 Q66.4133 855.343 66.6475 855.296 L66.8817 855.249 M94.0986 873.659 Q92.459 873.846 83.3711 873.846 Q81.6379 873.846 80.701 873.846 Q79.7172 873.846 77.8434 873.94 Q75.9696 874.034 74.7985 874.221 Q73.6274 874.362 71.941 874.689 Q70.2546 875.017 69.1771 875.486 Q68.0997 875.954 66.8817 876.704 Q65.6638 877.406 64.9611 878.343 Q64.2584 879.233 63.79 880.545 Q63.3215 881.81 63.3215 883.356 Q63.3215 885.276 64.0242 887.291 Q64.68 889.258 66.788 891.788 Q68.8492 894.317 72.1284 896.425 Q75.5949 898.627 81.9658 900.314 Q88.2898 901.953 92.0843 901.953 Q96.8625 901.953 99.72 899.751 Q102.531 897.55 102.531 893.334 Q102.531 883.262 94.0986 873.659 Z" fill="#000000" fill-rule="nonzero" fill-opacity="1" /><path clip-path="url(#clip600)" d="M79.6235 827.175 Q63.4152 827.175 50.3455 821.132 Q44.8646 818.555 40.2738 814.948 Q35.683 811.341 33.6687 808.952 Q31.6544 806.563 31.6544 805.907 Q31.6544 804.97 32.5913 804.923 Q33.0597 804.923 34.2308 806.188 Q49.9707 821.647 79.6235 821.6 Q109.37 821.6 124.501 806.563 Q126.141 804.923 126.656 804.923 Q127.593 804.923 127.593 805.907 Q127.593 806.563 125.672 808.858 Q123.751 811.154 119.348 814.714 Q114.945 818.274 109.557 820.851 Q96.4877 827.175 79.6235 827.175 Z" fill="#000000" fill-rule="nonzero" fill-opacity="1" /><path clip-path="url(#clip600)" d="M98.3615 789.624 Q91.9906 795.714 82.9027 795.714 Q73.7679 795.714 67.2096 789.717 Q60.6045 783.721 60.6045 774.914 Q60.6045 769.059 63.4152 764.655 Q66.1791 760.252 70.9104 760.252 Q73.0184 760.252 74.2364 761.517 Q75.4075 762.735 75.4075 764.655 Q75.4075 766.67 74.1895 767.888 Q72.9247 769.059 71.0041 769.059 Q70.1609 769.059 69.3177 768.778 Q68.4745 768.497 67.5844 767.466 Q66.6944 766.389 66.5538 764.562 Q63.0405 767.981 63.0405 774.633 Q63.0405 774.727 63.0405 774.821 Q63.0405 779.693 67.6313 783.721 Q72.2221 787.75 82.7153 787.75 Q88.1962 787.75 92.2248 786.438 Q96.2066 785.08 98.2678 782.878 Q100.329 780.676 101.313 778.521 Q102.25 776.367 102.25 774.259 Q102.25 764.843 92.178 761.657 Q91.2411 761.376 91.2411 760.439 Q91.2411 759.175 92.178 759.175 Q92.6464 759.175 93.8644 759.549 Q95.0824 759.924 97.003 761.095 Q98.9236 762.266 100.61 763.953 Q102.25 765.592 103.468 768.544 Q104.686 771.448 104.686 775.102 Q104.686 783.534 98.3615 789.624 Z" fill="#000000" fill-rule="nonzero" fill-opacity="1" /><path clip-path="url(#clip600)" d="M103.608 756.229 L100.657 756.229 Q100.657 751.123 100.048 749.952 Q99.3921 748.781 96.3003 748.781 L70.5825 748.781 Q67.0223 748.781 66.1322 750.046 Q65.2422 751.264 65.2422 756.229 L62.2441 756.229 L61.2135 742.738 L71.2852 742.738 Q61.2135 738.241 61.2135 728.544 Q61.2135 717.301 70.5825 715.755 Q66.9286 714.116 64.071 710.696 Q61.2135 707.229 61.2135 701.842 Q61.2135 694.628 64.7737 691.771 Q67.1628 689.663 69.833 689.241 Q72.5031 688.819 79.4362 688.819 L97.7525 688.819 Q99.7668 688.726 100.235 687.18 Q100.657 685.634 100.657 681.324 L103.608 681.324 Q103.327 691.115 103.327 692.052 Q103.327 692.801 103.608 702.92 L100.657 702.92 Q100.657 697.814 100.048 696.642 Q99.3921 695.424 96.3003 695.424 L73.9553 695.424 Q69.0834 695.424 66.2259 696.923 Q63.3215 698.423 63.3215 702.545 Q63.3215 707.51 67.4907 711.492 Q71.6599 715.474 78.6866 715.474 L96.3003 715.474 Q99.3921 715.474 100.048 714.303 Q100.657 713.085 100.657 707.979 L103.608 707.979 Q103.327 717.769 103.327 718.753 Q103.327 719.503 103.608 729.574 L100.657 729.574 Q100.657 724.468 100.048 723.297 Q99.3921 722.079 96.3003 722.079 L73.9553 722.079 Q69.0834 722.079 66.2259 723.578 Q63.3215 725.077 63.3215 729.2 Q63.3215 734.165 67.4907 738.147 Q71.6599 742.129 78.6866 742.129 L96.3003 742.129 Q99.3921 742.129 100.048 740.958 Q100.657 739.74 100.657 734.68 L103.608 734.68 Q103.327 744.471 103.327 745.408 Q103.327 746.157 103.608 756.229 Z" fill="#000000" fill-rule="nonzero" fill-opacity="1" /><path clip-path="url(#clip600)" d="M27.8914 627.483 Q28.2849 627.09 28.8424 627.09 Q29.3998 627.09 29.7933 627.483 Q30.1868 627.877 30.1868 628.434 L30.1868 670.473 Q30.1868 671.03 29.7933 671.424 Q29.3998 671.817 28.8424 671.817 Q28.2849 671.817 27.8914 671.424 Q27.4979 671.03 27.4979 670.473 L27.4979 628.434 Q27.4979 627.877 27.8914 627.483 Z" fill="#000000" fill-rule="nonzero" fill-opacity="1" /><path clip-path="url(#clip600)" d="M7.29839 620.083 L5.19974 620.083 Q5.19974 612.016 0.904064 607.852 Q0.904064 606.704 1.16639 606.507 Q1.42873 606.311 2.64201 606.311 L40.3194 606.311 Q42.3196 606.311 42.9427 605.327 Q43.5657 604.343 43.5657 600.047 L43.5657 597.916 L45.6316 597.916 Q45.4348 600.277 45.4348 608.803 Q45.4348 617.328 45.6316 619.657 L43.5657 619.657 L43.5657 617.525 Q43.5657 613.295 42.9755 612.279 Q42.3524 611.262 40.3194 611.262 L5.52765 611.262 Q7.29839 614.771 7.29839 620.083 Z" fill="#000000" fill-rule="nonzero" fill-opacity="1" /><path clip-path="url(#clip600)" d="M126.656 576.587 Q126.187 576.587 125.016 575.369 Q109.276 559.911 79.6235 559.911 Q49.877 559.911 34.8398 574.76 Q33.1066 576.587 32.5913 576.587 Q31.6544 576.587 31.6544 575.651 Q31.6544 574.995 33.575 572.699 Q35.4957 570.357 39.8991 566.844 Q44.3025 563.283 49.6897 560.66 Q62.7594 554.336 79.6235 554.336 Q95.8319 554.336 108.902 560.379 Q114.382 562.956 118.973 566.563 Q123.564 570.17 125.578 572.559 Q127.593 574.948 127.593 575.651 Q127.593 576.587 126.656 576.587 Z" fill="#000000" fill-rule="nonzero" fill-opacity="1" /><polyline clip-path="url(#clip602)" style="stroke:#009af9; stroke-linecap:round; stroke-linejoin:round; stroke-width:12; stroke-opacity:1; fill:none" points="316.519,-1078.39 318.498,-1087.09 320.477,-1094.97 322.456,-1102.11 324.435,-1108.6 326.414,-1114.5 328.392,-1119.87 330.371,-1124.78 332.35,-1129.26 334.329,-1133.36 336.308,-1137.12 338.287,-1140.55 340.266,-1143.7 342.245,-1146.58 344.224,-1149.22 346.203,-1151.64 348.182,-1153.84 350.16,-1155.83 352.139,-1157.63 354.118,-1159.22 356.097,-1160.58 358.076,-1161.69 360.055,-1162.43 362.034,-1162.59 364.013,-1161.52 365.992,-1158.12 367.971,-1188.93 369.95,-1181.96 371.928,-1178.87 373.907,-1177.98 375.886,-1177.84 377.865,-1177.99 379.844,-1178.29 381.823,-1178.64 383.802,-1179.02 385.781,-1179.41 387.76,-1179.79 389.739,-1180.16 391.718,-1180.51 393.696,-1180.84 395.675,-1181.14 397.654,-1181.43 399.633,-1181.7 401.612,-1181.94 403.591,-1182.16 405.57,-1182.36 407.549,-1182.55 409.528,-1182.71 411.507,-1182.85 413.485,-1182.98 415.464,-1183.08 417.443,-1183.17 419.422,-1183.25 421.401,-1183.31 423.38,-1183.35 425.359,-1183.38 427.338,-1183.39 429.317,-1183.39 431.296,-1183.37 433.275,-1183.35 435.253,-1183.31 437.232,-1183.25 439.211,-1183.19 441.19,-1183.11 443.169,-1183.03 445.148,-1182.93 447.127,-1182.82 449.106,-1182.7 451.085,-1182.57 453.064,-1182.43 455.043,-1182.28 457.021,-1182.12 459,-1181.95 460.979,-1181.77 462.958,-1181.58 464.937,-1181.39 466.916,-1181.18 468.895,-1180.97 470.874,-1180.75 472.853,-1180.52 474.832,-1180.28 476.811,-1180.03 478.789,-1179.78 480.768,-1179.51 482.747,-1179.24 484.726,-1178.96 486.705,-1178.68 488.684,-1178.38 490.663,-1178.08 492.642,-1177.77 494.621,-1177.46 496.6,-1177.13 498.579,-1176.8 500.557,-1176.46 502.536,-1176.12 504.515,-1175.76 506.494,-1175.4 508.473,-1175.04 510.452,-1174.66 512.431,-1174.28 514.41,-1173.89 516.389,-1173.5 518.368,-1173.09 520.347,-1172.68 522.325,-1172.27 524.304,-1171.84 526.283,-1171.41 528.262,-1170.97 530.241,-1170.53 532.22,-1170.07 534.199,-1169.61 536.178,-1169.15 538.157,-1168.67 540.136,-1168.19 542.115,-1167.7 544.093,-1167.21 546.072,-1166.7 548.051,-1166.19 550.03,-1165.67 552.009,-1165.15 553.988,-1164.62 555.967,-1164.08 557.946,-1163.53 559.925,-1162.97 561.904,-1162.41 563.882,-1161.84 565.861,-1161.26 567.84,-1160.68 569.819,-1160.08 571.798,-1159.48 573.777,-1158.87 575.756,-1158.25 577.735,-1157.63 579.714,-1157 581.693,-1156.35 583.672,-1155.7 585.65,-1155.05 587.629,-1154.38 589.608,-1153.7 591.587,-1153.02 593.566,-1152.33 595.545,-1151.63 597.524,-1150.91 599.503,-1150.2 601.482,-1149.47 603.461,-1148.73 605.44,-1147.98 607.418,-1147.23 609.397,-1146.46 611.376,-1145.69 613.355,-1144.9 615.334,-1144.11 617.313,-1143.3 619.292,-1142.49 621.271,-1141.66 623.25,-1140.83 625.229,-1139.98 627.208,-1139.13 629.186,-1138.26 631.165,-1137.38 633.144,-1136.49 635.123,-1135.59 637.102,-1134.68 639.081,-1133.76 641.06,-1132.83 643.039,-1131.88 645.018,-1130.92 646.997,-1129.95 648.976,-1128.97 650.954,-1127.97 652.933,-1126.96 654.912,-1125.94 656.891,-1124.91 658.87,-1123.86 660.849,-1122.8 662.828,-1121.72 664.807,-1120.63 666.786,-1119.53 668.765,-1118.41 670.744,-1117.27 672.722,-1116.12 674.701,-1114.96 676.68,-1113.78 678.659,-1112.58 680.638,-1111.37 682.617,-1110.14 684.596,-1108.89 686.575,-1107.63 688.554,-1106.35 690.533,-1105.05 692.512,-1103.73 694.49,-1102.39 696.469,-1101.04 698.448,-1099.66 700.427,-1098.27 702.406,-1096.85 704.385,-1095.42 706.364,-1093.96 708.343,-1092.48 710.322,-1090.97 712.301,-1089.45 714.28,-1087.9 716.258,-1086.33 718.237,-1084.73 720.216,-1083.11 722.195,-1081.46 724.174,-1079.78 726.153,-1078.08 728.132,-1076.35 730.111,-1074.6 732.09,-1072.81 734.069,-1070.99 736.047,-1069.14 738.026,-1067.26 740.005,-1065.35 741.984,-1063.4 743.963,-1061.42 745.942,-1059.4 747.921,-1057.35 749.9,-1055.25 751.879,-1053.12 753.858,-1050.95 755.837,-1048.74 757.815,-1046.48 759.794,-1044.18 761.773,-1041.83 763.752,-1039.44 765.731,-1037 767.71,-1034.5 769.689,-1031.95 771.668,-1029.35 773.647,-1026.69 775.626,-1023.97 777.605,-1021.2 779.583,-1018.35 781.562,-1015.44 783.541,-1012.47 785.52,-1009.41 787.499,-1006.29 789.478,-1003.09 791.457,-999.8 793.436,-996.429 795.415,-992.969 797.394,-989.414 799.373,-985.762 801.351,-982.006 803.33,-978.141 805.309,-974.162 807.288,-970.063 809.267,-965.838 811.246,-961.479 813.225,-956.979 815.204,-952.329 817.183,-947.521 819.162,-942.545 821.141,-937.391 823.119,-932.048 825.098,-926.504 827.077,-920.744 829.056,-914.756 831.035,-908.524 833.014,-902.031 834.993,-895.258 836.972,-888.188 838.951,-880.798 840.93,-873.067 842.909,-864.972 844.887,-856.489 846.866,-847.594 848.845,-838.262 850.824,-828.472 852.803,-818.204 854.782,-807.444 856.761,-796.184 858.74,-784.428 860.719,-772.193 862.698,-759.512 864.677,-746.436 866.655,-733.038 868.634,-719.406 870.613,-445.393 872.592,-394.053 874.571,-350.953 876.55,-315.044 878.529,-284.697 880.508,-258.564 882.487,-235.659 884.466,-215.275 886.444,-196.904 888.423,-180.168 890.402,-164.784 892.381,-150.537 894.36,-137.255 896.339,-124.804 898.318,-113.075 900.297,-101.979 902.276,-91.4428 904.255,-81.404 906.234,-71.8111 908.212,-62.6196 910.191,-53.7917 912.17,-45.2945 914.149,-37.0994 916.128,-29.1813 918.107,-21.5183 920.086,-14.0909 922.065,-6.88178 924.044,0.124611 926.023,6.9421 928.002,13.5832 929.98,20.0591 931.959,26.3801 933.938,32.5554 935.917,38.5936 937.896,44.5023 939.875,50.2886 941.854,55.9592 943.833,61.5199 945.812,66.9763 947.791,72.3335 949.77,77.5963 951.748,82.769 953.727,87.8559 955.706,92.8607 957.685,97.7869 959.664,102.638 961.643,107.417 963.622,112.127 965.601,116.77 967.58,121.35 969.559,125.868 971.538,130.327 973.516,134.73 975.495,139.077 977.474,143.371 979.453,147.615 981.432,151.808 983.411,155.955 985.39,160.055 987.369,164.11 989.348,168.122 991.327,172.092 993.306,176.021 995.284,179.911 997.263,183.763 999.242,187.577 1001.22,191.355 1003.2,195.099 1005.18,198.808 1007.16,202.484 1009.14,206.127 1011.12,209.74 1013.09,213.321 1015.07,216.873 1017.05,220.396 1019.03,223.89 1021.01,227.357 1022.99,230.796 1024.97,234.21 1026.95,237.598 1028.93,240.96 1030.9,244.298 1032.88,247.613 1034.86,250.904 1036.84,254.171 1038.82,257.417 1040.8,260.641 1042.78,263.843 1044.76,267.024 1046.74,270.185 1048.71,273.326 1050.69,276.447 1052.67,279.549 1054.65,282.632 1056.63,285.696 1058.61,288.743 1060.59,291.771 1062.57,294.782 1064.55,297.776 1066.53,300.754 1068.5,303.714 1070.48,306.659 1072.46,309.588 1074.44,312.501 1076.42,315.399 1078.4,318.282 1080.38,321.15 1082.36,324.004 1084.34,326.844 1086.31,329.67 1088.29,332.482 1090.27,335.28 1092.25,338.065 1094.23,340.838 1096.21,343.597 1098.19,346.344 1100.17,349.079 1102.15,351.801 1104.12,354.511 1106.1,357.21 1108.08,359.897 1110.06,362.573 1112.04,365.237 1114.02,367.89 1116,370.533 1117.98,373.165 1119.96,375.786 1121.93,378.397 1123.91,380.998 1125.89,383.589 1127.87,386.17 1129.85,388.741 1131.83,391.303 1133.81,393.856 1135.79,396.399 1137.77,398.933 1139.74,401.458 1141.72,403.974 1143.7,406.481 1145.68,408.98 1147.66,411.47 1149.64,413.952 1151.62,416.426 1153.6,418.892 1155.58,421.35 1157.55,423.8 1159.53,426.243 1161.51,428.677 1163.49,431.105 1165.47,433.525 1167.45,435.938 1169.43,438.343 1171.41,440.742 1173.39,443.134 1175.37,445.519 1177.34,447.897 1179.32,450.269 1181.3,452.634 1183.28,454.993 1185.26,457.345 1187.24,459.692 1189.22,462.032 1191.2,464.367 1193.18,466.695 1195.15,469.018 1197.13,471.335 1199.11,473.647 1201.09,475.953 1203.07,478.254 1205.05,480.549 1207.03,482.84 1209.01,485.125 1210.99,487.406 1212.96,489.681 1214.94,491.952 1216.92,494.218 1218.9,496.479 1220.88,498.736 1222.86,500.989 1224.84,503.237 1226.82,505.482 1228.8,507.722 1230.77,509.958 1232.75,512.19 1234.73,514.419 1236.71,516.644 1238.69,518.865 1240.67,521.083 1242.65,523.298 1244.63,525.509 1246.61,527.718 1248.58,529.923 1250.56,532.126 1252.54,534.326 1254.52,536.523 1256.5,538.718 1258.48,540.911 1260.46,543.102 1262.44,545.29 1264.42,547.477 1266.39,549.663 1268.37,551.847 1270.35,554.03 1272.33,556.212 1274.31,558.393 1276.29,560.574 1278.27,562.755 1280.25,564.936 1282.23,567.118 1284.2,569.3 1286.18,571.485 1288.16,573.672 1290.14,575.862 1292.12,578.057 1294.1,580.257 1296.08,582.466 1298.06,584.691 1300.04,586.938 1302.02,589.179 1303.99,591.414 1305.97,593.643 1307.95,595.866 1309.93,598.083 1311.91,600.295 1313.89,602.501 1315.87,604.701 1317.85,606.895 1319.83,609.084 1321.8,611.268 1323.78,613.445 1325.76,615.618 1327.74,617.784 1329.72,619.946 1331.7,622.1 1333.68,624.249 1335.66,626.393 1337.64,628.532 1339.61,630.666 1341.59,632.795 1343.57,634.918 1345.55,637.036 1347.53,639.149 1349.51,641.257 1351.49,643.359 1353.47,645.457 1355.45,647.55 1357.42,649.637 1359.4,651.72 1361.38,653.797 1363.36,655.87 1365.34,657.938 1367.32,660.001 1369.3,662.058 1371.28,664.112 1373.26,666.16 1375.23,668.203 1377.21,670.242 1379.19,672.276 1381.17,674.305 1383.15,676.33 1385.13,678.35 1387.11,680.365 1389.09,682.375 1391.07,684.381 1393.04,686.383 1395.02,688.38 1397,690.372 1398.98,692.36 1400.96,694.343 1402.94,696.322 1404.92,698.296 1406.9,700.266 1408.88,702.232 1410.86,704.193 1412.83,706.15 1414.81,708.102 1416.79,710.05 1418.77,711.994 1420.75,713.934 1422.73,715.869 1424.71,717.8 1426.69,719.727 1428.67,721.649 1430.64,723.567 1432.62,725.482 1434.6,727.392 1436.58,729.297 1438.56,731.199 1440.54,733.097 1442.52,734.99 1444.5,736.88 1446.48,738.765 1448.45,740.647 1450.43,742.524 1452.41,744.397 1454.39,746.266 1456.37,748.132 1458.35,749.993 1460.33,751.85 1462.31,753.704 1464.29,755.553 1466.26,757.399 1468.24,759.24 1470.22,761.078 1472.2,762.912 1474.18,764.742 1476.16,766.568 1478.14,768.39 1480.12,770.209 1482.1,772.024 1484.07,773.834 1486.05,775.641 1488.03,777.445 1490.01,779.244 1491.99,781.04 1493.97,782.831 1495.95,784.619 1497.93,786.404 1499.91,788.184 1501.88,789.961 1503.86,791.734 1505.84,793.504 1507.82,795.269 1509.8,797.031 1511.78,798.79 1513.76,800.544 1515.74,802.295 1517.72,804.042 1519.7,805.785 1521.67,807.525 1523.65,809.261 1525.63,810.993 1527.61,812.722 1529.59,814.447 1531.57,816.168 1533.55,817.886 1535.53,819.6 1537.51,821.31 1539.48,823.017 1541.46,824.719 1543.44,826.419 1545.42,828.114 1547.4,829.806 1549.38,831.494 1551.36,833.178 1553.34,834.859 1555.32,836.536 1557.29,838.209 1559.27,839.878 1561.25,841.544 1563.23,843.206 1565.21,844.864 1567.19,846.518 1569.17,848.169 1571.15,849.816 1573.13,851.459 1575.1,853.098 1577.08,854.733 1579.06,856.365 1581.04,857.992 1583.02,859.616 1585,861.236 1586.98,862.851 1588.96,864.463 1590.94,866.071 1592.91,867.675 1594.89,869.275 1596.87,870.871 1598.85,872.462 1600.83,874.05 1602.81,875.634 1604.79,877.213 1606.77,878.788 1608.75,880.359 1610.72,881.926 1612.7,883.488 1614.68,885.046 1616.66,886.6 1618.64,888.149 1620.62,889.694 1622.6,891.235 1624.58,892.77 1626.56,894.302 1628.53,895.828 1630.51,897.35 1632.49,898.868 1634.47,900.38 1636.45,901.888 1638.43,903.39 1640.41,904.888 1642.39,906.381 1644.37,907.869 1646.35,909.351 1648.32,910.829 1650.3,912.301 1652.28,913.768 1654.26,915.229 1656.24,916.685 1658.22,918.135 1660.2,919.58 1662.18,921.018 1664.16,922.452 1666.13,923.879 1668.11,925.3 1670.09,926.715 1672.07,928.124 1674.05,929.526 1676.03,930.922 1678.01,932.312 1679.99,933.695 1681.97,935.071 1683.94,936.44 1685.92,937.802 1687.9,939.157 1689.88,940.505 1691.86,941.846 1693.84,943.179 1695.82,944.505 1697.8,945.822 1699.78,947.132 1701.75,948.433 1703.73,949.727 1705.71,951.012 1707.69,952.288 1709.67,953.556 1711.65,954.814 1713.63,956.064 1715.61,957.304 1717.59,958.535 1719.56,959.756 1721.54,960.967 1723.52,962.168 1725.5,963.359 1727.48,964.539 1729.46,965.709 1731.44,966.867 1733.42,968.015 1735.4,969.15 1737.37,970.275 1739.35,971.387 1741.33,972.487 1743.31,973.574 1745.29,974.649 1747.27,975.711 1749.25,976.759 1751.23,977.794 1753.21,978.815 1755.19,979.822 1757.16,980.814 1759.14,981.791 1761.12,982.753 1763.1,983.7 1765.08,984.63 1767.06,985.545 1769.04,986.443 1771.02,987.324 1773,988.187 1774.97,989.033 1776.95,989.861 1778.93,990.67 1780.91,991.461 1782.89,992.232 1784.87,992.983 1786.85,993.714 1788.83,994.424 1790.81,995.114 1792.78,995.782 1794.76,996.427 1796.74,997.051 1798.72,997.651 1800.7,998.228 1802.68,998.781 1804.66,999.31 1806.64,999.813 1808.62,1000.29 1810.59,1000.74 1812.57,1001.17 1814.55,1001.57 1816.53,1001.94 1818.51,1002.28 1820.49,1002.59 1822.47,1002.88 1824.45,1003.13 1826.43,1003.36 1828.4,1003.55 1830.38,1003.71 1832.36,1003.84 1834.34,1003.93 1836.32,1003.99 1838.3,1004.02 1840.28,1004.01 1842.26,1003.97 1844.24,1003.89 1846.21,1003.78 1848.19,1003.62 1850.17,1003.43 1852.15,1003.2 1854.13,1002.93 1856.11,1002.62 1858.09,1002.27 1860.07,1001.88 1862.05,1001.45 1864.03,1000.97 1866,1000.45 1867.98,999.886 1869.96,999.277 1871.94,998.624 1873.92,997.924 1875.9,997.178 1877.88,996.385 1879.86,995.544 1881.84,994.654 1883.81,993.716 1885.79,992.728 1887.77,991.689 1889.75,990.6 1891.73,989.46 1893.71,988.267 1895.69,987.022 1897.67,985.724 1899.65,984.373 1901.62,982.967 1903.6,981.507 1905.58,979.992 1907.56,978.421 1909.54,976.794 1911.52,975.111 1913.5,973.371 1915.48,971.574 1917.46,969.72 1919.43,967.807 1921.41,965.837 1923.39,963.808 1925.37,961.72 1927.35,959.573 1929.33,957.366 1931.31,955.1 1933.29,952.775 1935.27,950.389 1937.24,947.943 1939.22,945.438 1941.2,942.871 1943.18,940.245 1945.16,937.558 1947.14,934.811 1949.12,932.003 1951.1,929.135 1953.08,926.207 1955.05,923.218 1957.03,920.17 1959.01,917.061 1960.99,913.893 1962.97,910.664 1964.95,907.377 1966.93,904.03 1968.91,900.624 1970.89,897.159 1972.86,893.636 1974.84,890.055 1976.82,886.416 1978.8,882.72 1980.78,878.967 1982.76,875.157 1984.74,871.291 1986.72,867.369 1988.7,863.393 1990.68,859.361 1992.65,855.275 1994.63,851.136 1996.61,846.943 1998.59,842.697 2000.57,838.4 2002.55,834.051 2004.53,829.651 2006.51,825.201 2008.49,820.701 2010.46,816.152 2012.44,811.555 2014.42,806.91 2016.4,802.218 2018.38,797.479 2020.36,792.695 2022.34,787.865 2024.32,782.992 2026.3,778.074 2028.27,773.114 2030.25,768.111 2032.23,763.066 2034.21,757.981 2036.19,752.856 2038.17,747.691 2040.15,742.487 2042.13,737.245 2044.11,731.966 2046.08,726.651 2048.06,721.299 2050.04,715.912 2052.02,710.491 2054,705.036 2055.98,699.548 2057.96,694.027 2059.94,688.475 2061.92,682.892 2063.89,677.279 2065.87,671.635 2067.85,665.963 2069.83,660.263 2071.81,654.535 2073.79,648.78 2075.77,642.999 2077.75,637.192 2079.73,631.36 2081.7,625.504 2083.68,619.624 2085.66,613.721 2087.64,607.795 2089.62,601.848 2091.6,595.879 2093.58,589.889 2095.56,583.88 2097.54,577.85 2099.52,571.802 2101.49,565.736 2103.47,559.651 2105.45,553.549 2107.43,547.431 2109.41,541.296 2111.39,535.146 2113.37,528.98 2115.35,522.8 2117.33,516.605 2119.3,510.397 2121.28,504.175 2123.26,497.941 2125.24,491.695 2127.22,485.437 2129.2,479.168 2131.18,472.887 2133.16,466.597 2135.14,460.296 2137.11,453.986 2139.09,447.667 2141.07,441.339 2143.05,435.003 2145.03,428.659 2147.01,422.307 2148.99,415.949 2150.97,409.584 2152.95,403.213 2154.92,396.835 2156.9,390.453 2158.88,384.065 2160.86,377.672 2162.84,371.275 2164.82,364.874 2166.8,358.469 2168.78,352.061 2170.76,345.65 2172.73,339.237 2174.71,332.821 2176.69,326.403 2178.67,319.983 2180.65,313.562 2182.63,307.14 2184.61,300.718 2186.59,294.295 2188.57,287.872 2190.54,281.449 2192.52,275.027 2194.5,268.605 2196.48,262.185 2198.46,255.767 2200.44,249.35 2202.42,242.935 2204.4,236.523 2206.38,230.113 2208.35,223.706 2210.33,217.302 2212.31,210.902 2214.29,204.506 2216.27,198.114 2218.25,191.726 2220.23,185.343 2222.21,178.965 2224.19,172.592 2226.17,166.225 2228.14,159.863 2230.12,153.508 2232.1,147.159 2234.08,140.816 2236.06,134.48 2238.04,128.152 2240.02,121.831 2242,115.518 2243.98,109.213 2245.95,102.916 2247.93,96.6273 2249.91,90.3479 2251.89,84.0776 2253.87,77.8167 2255.85,71.5655 2257.83,65.3243 2259.81,59.0933 2261.79,52.873 2263.76,46.6634 2265.74,40.465 2267.72,34.278 2269.7,28.1026 2271.68,21.9393 2273.66,15.7882 2275.64,9.64963 2277.62,3.52394 2279.6,-2.58862 2281.57,-8.68774 2283.55,-14.7731 2285.53,-20.8445 2287.51,-26.9016 2289.49,-32.944 2291.47,-38.9715 2293.45,-44.9839 "/>
<path clip-path="url(#clip600)" d="M327.063 219.862 L896.181 219.862 L896.181 92.3886 L327.063 92.3886  Z" fill="#ffffff" fill-rule="evenodd" fill-opacity="1"/>
<polyline clip-path="url(#clip600)" style="stroke:#000000; stroke-linecap:round; stroke-linejoin:round; stroke-width:4; stroke-opacity:1; fill:none" points="327.063,219.862 896.181,219.862 896.181,92.3886 327.063,92.3886 327.063,219.862 "/>
<polyline clip-path="url(#clip600)" style="stroke:#009af9; stroke-linecap:round; stroke-linejoin:round; stroke-width:12; stroke-opacity:1; fill:none" points="350.346,156.125 490.049,156.125 "/>
<path clip-path="url(#clip600)" d="M513.333 176.119 L513.333 174.643 Q515.886 174.643 516.472 174.339 Q517.057 174.011 517.057 172.465 L517.057 159.606 Q517.057 157.826 516.425 157.381 Q515.816 156.936 513.333 156.936 L513.333 155.437 L520.079 154.921 L520.079 159.957 Q522.327 154.921 527.176 154.921 Q530.783 154.921 532.212 156.701 Q533.266 157.896 533.477 159.231 Q533.711 160.566 533.711 164.033 L533.711 173.191 Q533.758 174.198 534.531 174.432 Q535.304 174.643 537.458 174.643 L537.458 176.119 Q532.563 175.978 532.071 175.978 Q531.696 175.978 526.661 176.119 L526.661 174.643 Q529.214 174.643 529.799 174.339 Q530.408 174.011 530.408 172.465 L530.408 161.292 Q530.408 158.856 529.659 157.428 Q528.909 155.975 526.848 155.975 Q524.365 155.975 522.374 158.06 Q520.383 160.145 520.383 163.658 L520.383 172.465 Q520.383 174.011 520.969 174.339 Q521.578 174.643 524.108 174.643 L524.108 176.119 Q519.212 175.978 518.744 175.978 Q518.369 175.978 513.333 176.119 Z" fill="#000000" fill-rule="nonzero" fill-opacity="1" /><path clip-path="url(#clip600)" d="M552.986 168.834 Q553.032 168.249 553.946 168.249 L583.341 168.249 Q584.723 168.249 584.746 168.787 Q584.746 169.373 583.435 169.35 L554.274 169.35 Q552.986 169.373 552.986 168.834 M552.986 159.465 Q552.986 158.88 553.993 158.903 L583.294 158.903 Q584.723 158.903 584.746 159.465 Q584.746 160.004 583.528 160.004 L553.946 160.004 Q552.986 160.004 552.986 159.465 Z" fill="#000000" fill-rule="nonzero" fill-opacity="1" /><path clip-path="url(#clip600)" d="M603.237 168.881 Q603.237 163.517 610.147 160.051 Q607.172 158.037 606.634 157.451 Q604.526 155.109 604.526 152.181 Q604.526 148.832 607.055 146.513 Q609.608 144.17 613.215 144.17 Q616.658 144.17 619.258 146.161 Q621.858 148.152 621.858 151.314 Q621.858 155.765 616.049 158.763 Q619.891 161.152 620.804 162.159 Q623.146 164.759 623.146 168.061 Q623.146 171.903 620.195 174.549 Q617.244 177.173 613.168 177.173 Q609.187 177.173 606.212 174.854 Q603.237 172.535 603.237 168.881 M605.626 168.881 Q605.626 171.856 607.852 173.847 Q610.1 175.838 613.215 175.838 Q616.237 175.838 618.485 174.104 Q620.757 172.371 620.757 169.795 Q620.757 168.787 620.406 167.921 Q620.078 167.054 619.399 166.375 Q618.743 165.672 618.321 165.368 Q617.923 165.04 617.15 164.501 L611.248 160.777 Q605.626 163.892 605.626 168.881 M606.634 150.307 Q606.634 152.603 609.046 154.195 L614.995 158.037 Q619.75 155.249 619.75 151.314 Q619.75 148.761 617.806 147.075 Q615.862 145.365 613.168 145.365 Q610.522 145.365 608.578 146.77 Q606.634 148.152 606.634 150.307 Z" fill="#000000" fill-rule="nonzero" fill-opacity="1" /><path clip-path="url(#clip600)" d="M627.713 175.346 Q626.987 174.573 626.987 173.566 Q626.987 172.558 627.713 171.832 Q628.44 171.083 629.54 171.083 Q630.594 171.083 631.297 171.786 Q632.023 172.465 632.023 173.589 Q632.023 174.69 631.25 175.416 Q630.501 176.119 629.54 176.119 Q628.44 176.119 627.713 175.346 Z" fill="#000000" fill-rule="nonzero" fill-opacity="1" /><path clip-path="url(#clip600)" d="M640.184 169.654 Q640.184 168.225 641.004 167.546 Q641.824 166.867 642.878 166.867 Q643.979 166.867 644.752 167.593 Q645.548 168.296 645.548 169.537 Q645.548 170.872 644.611 171.622 Q643.698 172.371 642.386 172.184 Q643.534 174.104 645.642 174.971 Q647.773 175.838 649.741 175.838 Q651.802 175.838 653.465 174.058 Q655.151 172.277 655.151 167.921 Q655.151 164.22 653.699 162.089 Q652.27 159.957 649.436 159.957 L647.328 159.957 Q646.602 159.957 646.391 159.887 Q646.181 159.817 646.181 159.418 Q646.181 158.95 646.907 158.856 Q647.633 158.856 648.78 158.716 Q651.568 158.622 653.043 156.21 Q654.378 153.961 654.378 150.752 Q654.378 147.824 652.973 146.606 Q651.591 145.365 649.788 145.365 Q648.101 145.365 646.251 146.068 Q644.4 146.77 643.393 148.34 Q646.368 148.34 646.368 150.752 Q646.368 151.806 645.689 152.509 Q645.033 153.188 643.932 153.188 Q642.878 153.188 642.175 152.532 Q641.473 151.853 641.473 150.705 Q641.473 147.965 643.909 146.068 Q646.368 144.17 649.975 144.17 Q653.535 144.17 656.158 146.044 Q658.805 147.918 658.805 150.799 Q658.805 153.633 656.931 155.952 Q655.058 158.271 652.083 159.231 Q655.737 159.957 657.915 162.44 Q660.093 164.899 660.093 167.921 Q660.093 171.668 657.142 174.432 Q654.191 177.173 649.881 177.173 Q645.899 177.173 643.042 175.018 Q640.184 172.863 640.184 169.654 Z" fill="#000000" fill-rule="nonzero" fill-opacity="1" /><path clip-path="url(#clip600)" d="M664.126 165.555 Q664.126 161.035 667.031 157.826 Q669.935 154.617 674.104 154.617 Q678.32 154.617 680.499 157.357 Q682.7 160.098 682.7 164.033 Q682.7 164.759 682.513 164.899 Q682.326 165.04 681.506 165.04 L668.108 165.04 Q668.108 169.935 669.56 172.231 Q671.575 175.439 674.971 175.439 Q675.439 175.439 676.002 175.346 Q676.564 175.252 677.711 174.854 Q678.859 174.432 679.866 173.331 Q680.873 172.231 681.459 170.497 Q681.6 169.818 682.068 169.841 Q682.7 169.841 682.7 170.404 Q682.7 170.825 682.232 171.786 Q681.787 172.722 680.92 173.847 Q680.054 174.971 678.367 175.814 Q676.704 176.657 674.69 176.657 Q670.474 176.657 667.288 173.472 Q664.126 170.263 664.126 165.555 M668.155 164.033 L679.538 164.033 Q679.538 163.026 679.351 161.901 Q679.187 160.777 678.672 159.231 Q678.18 157.662 677.009 156.678 Q675.838 155.694 674.104 155.694 Q673.331 155.694 672.488 156.022 Q671.668 156.35 670.661 157.147 Q669.654 157.943 668.951 159.746 Q668.249 161.55 668.155 164.033 Z" fill="#000000" fill-rule="nonzero" fill-opacity="1" /><path clip-path="url(#clip600)" d="M686.937 148.738 L686.937 147.239 Q692.699 147.239 695.674 144.17 Q696.493 144.17 696.634 144.358 Q696.775 144.545 696.775 145.412 L696.775 172.324 Q696.775 173.753 697.477 174.198 Q698.18 174.643 701.248 174.643 L702.771 174.643 L702.771 176.119 Q701.084 175.978 694.994 175.978 Q688.905 175.978 687.242 176.119 L687.242 174.643 L688.764 174.643 Q691.786 174.643 692.512 174.221 Q693.238 173.776 693.238 172.324 L693.238 147.473 Q690.732 148.738 686.937 148.738 Z" fill="#000000" fill-rule="nonzero" fill-opacity="1" /><path clip-path="url(#clip600)" d="M705.459 168.881 Q705.459 163.517 712.369 160.051 Q709.394 158.037 708.855 157.451 Q706.747 155.109 706.747 152.181 Q706.747 148.832 709.277 146.513 Q711.83 144.17 715.437 144.17 Q718.88 144.17 721.48 146.161 Q724.08 148.152 724.08 151.314 Q724.08 155.765 718.271 158.763 Q722.112 161.152 723.026 162.159 Q725.368 164.759 725.368 168.061 Q725.368 171.903 722.417 174.549 Q719.466 177.173 715.39 177.173 Q711.408 177.173 708.434 174.854 Q705.459 172.535 705.459 168.881 M707.848 168.881 Q707.848 171.856 710.073 173.847 Q712.322 175.838 715.437 175.838 Q718.459 175.838 720.707 174.104 Q722.979 172.371 722.979 169.795 Q722.979 168.787 722.628 167.921 Q722.3 167.054 721.621 166.375 Q720.965 165.672 720.543 165.368 Q720.145 165.04 719.372 164.501 L713.47 160.777 Q707.848 163.892 707.848 168.881 M708.855 150.307 Q708.855 152.603 711.268 154.195 L717.217 158.037 Q721.972 155.249 721.972 151.314 Q721.972 148.761 720.028 147.075 Q718.084 145.365 715.39 145.365 Q712.744 145.365 710.799 146.77 Q708.855 148.152 708.855 150.307 Z" fill="#000000" fill-rule="nonzero" fill-opacity="1" /><path clip-path="url(#clip600)" d="M729.209 164.126 Q729.209 156.022 732.231 149.487 Q733.519 146.747 735.322 144.452 Q737.126 142.156 738.32 141.149 Q739.515 140.142 739.843 140.142 Q740.311 140.142 740.335 140.61 Q740.335 140.844 739.702 141.43 Q731.973 149.3 731.996 164.126 Q731.996 179 739.515 186.565 Q740.335 187.385 740.335 187.643 Q740.335 188.111 739.843 188.111 Q739.515 188.111 738.367 187.151 Q737.22 186.19 735.44 183.989 Q733.659 181.787 732.371 179.093 Q729.209 172.558 729.209 164.126 Z" fill="#000000" fill-rule="nonzero" fill-opacity="1" /><path clip-path="url(#clip600)" d="M747.982 173.495 Q744.937 170.31 744.937 165.766 Q744.937 161.199 747.935 157.919 Q750.933 154.617 755.336 154.617 Q758.264 154.617 760.466 156.022 Q762.667 157.404 762.667 159.77 Q762.667 160.824 762.035 161.433 Q761.426 162.018 760.466 162.018 Q759.459 162.018 758.85 161.409 Q758.264 160.777 758.264 159.817 Q758.264 159.395 758.405 158.973 Q758.545 158.552 759.06 158.107 Q759.599 157.662 760.513 157.592 Q758.803 155.835 755.477 155.835 Q755.43 155.835 755.383 155.835 Q752.947 155.835 750.933 158.13 Q748.918 160.426 748.918 165.672 Q748.918 168.413 749.574 170.427 Q750.254 172.418 751.354 173.449 Q752.455 174.479 753.533 174.971 Q754.61 175.439 755.664 175.439 Q760.372 175.439 761.965 170.404 Q762.105 169.935 762.574 169.935 Q763.206 169.935 763.206 170.404 Q763.206 170.638 763.019 171.247 Q762.831 171.856 762.246 172.816 Q761.66 173.776 760.817 174.62 Q759.997 175.439 758.522 176.048 Q757.069 176.657 755.243 176.657 Q751.026 176.657 747.982 173.495 Z" fill="#000000" fill-rule="nonzero" fill-opacity="1" /><path clip-path="url(#clip600)" d="M764.675 176.119 L764.675 174.643 Q767.228 174.643 767.814 174.339 Q768.4 174.011 768.4 172.465 L768.4 159.606 Q768.4 157.826 767.767 157.381 Q767.158 156.936 764.675 156.936 L764.675 155.437 L771.421 154.921 L771.421 159.957 Q773.67 154.921 778.518 154.921 Q784.139 154.921 784.912 159.606 Q785.732 157.779 787.442 156.35 Q789.175 154.921 791.869 154.921 Q795.476 154.921 796.905 156.701 Q797.959 157.896 798.17 159.231 Q798.38 160.566 798.38 164.033 L798.38 173.191 Q798.427 174.198 799.2 174.432 Q799.973 174.643 802.128 174.643 L802.128 176.119 Q797.233 175.978 796.764 175.978 Q796.389 175.978 791.33 176.119 L791.33 174.643 Q793.883 174.643 794.469 174.339 Q795.078 174.011 795.078 172.465 L795.078 161.292 Q795.078 158.856 794.328 157.428 Q793.579 155.975 791.518 155.975 Q789.035 155.975 787.044 158.06 Q785.053 160.145 785.053 163.658 L785.053 172.465 Q785.053 174.011 785.639 174.339 Q786.247 174.643 788.801 174.643 L788.801 176.119 Q783.905 175.978 783.413 175.978 Q783.039 175.978 778.003 176.119 L778.003 174.643 Q780.556 174.643 781.141 174.339 Q781.75 174.011 781.75 172.465 L781.75 161.292 Q781.75 158.856 781.001 157.428 Q780.251 155.975 778.19 155.975 Q775.707 155.975 773.716 158.06 Q771.726 160.145 771.726 163.658 L771.726 172.465 Q771.726 174.011 772.311 174.339 Q772.92 174.643 775.45 174.643 L775.45 176.119 Q770.554 175.978 770.086 175.978 Q769.711 175.978 764.675 176.119 Z" fill="#000000" fill-rule="nonzero" fill-opacity="1" /><path clip-path="url(#clip600)" d="M829.041 137.535 Q829.237 137.732 829.237 138.011 Q829.237 138.29 829.041 138.486 Q828.844 138.683 828.565 138.683 L807.546 138.683 Q807.267 138.683 807.07 138.486 Q806.874 138.29 806.874 138.011 Q806.874 137.732 807.07 137.535 Q807.267 137.339 807.546 137.339 L828.565 137.339 Q828.844 137.339 829.041 137.535 Z" fill="#000000" fill-rule="nonzero" fill-opacity="1" /><path clip-path="url(#clip600)" d="M832.736 141.88 Q832.736 140.88 833.31 140.405 Q833.884 139.929 834.622 139.929 Q835.393 139.929 835.934 140.437 Q836.491 140.929 836.491 141.798 Q836.491 142.733 835.835 143.257 Q835.196 143.782 834.278 143.651 Q835.081 144.995 836.557 145.602 Q838.049 146.209 839.426 146.209 Q840.869 146.209 842.033 144.963 Q843.213 143.717 843.213 140.667 Q843.213 138.076 842.197 136.584 Q841.197 135.092 839.213 135.092 L837.737 135.092 Q837.229 135.092 837.081 135.043 Q836.934 134.994 836.934 134.715 Q836.934 134.387 837.442 134.322 Q837.95 134.322 838.754 134.223 Q840.705 134.158 841.738 132.469 Q842.672 130.895 842.672 128.649 Q842.672 126.599 841.689 125.747 Q840.721 124.878 839.459 124.878 Q838.278 124.878 836.983 125.37 Q835.688 125.862 834.983 126.96 Q837.065 126.96 837.065 128.649 Q837.065 129.387 836.589 129.879 Q836.13 130.354 835.36 130.354 Q834.622 130.354 834.13 129.895 Q833.638 129.419 833.638 128.616 Q833.638 126.698 835.343 125.37 Q837.065 124.042 839.59 124.042 Q842.082 124.042 843.918 125.353 Q845.771 126.665 845.771 128.682 Q845.771 130.666 844.459 132.289 Q843.148 133.912 841.065 134.584 Q843.623 135.092 845.148 136.83 Q846.673 138.552 846.673 140.667 Q846.673 143.29 844.607 145.225 Q842.541 147.143 839.524 147.143 Q836.737 147.143 834.737 145.635 Q832.736 144.126 832.736 141.88 Z" fill="#000000" fill-rule="nonzero" fill-opacity="1" /><path clip-path="url(#clip600)" d="M854.481 187.643 Q854.481 187.408 855.09 186.823 Q862.82 178.953 862.82 164.126 Q862.82 149.253 855.395 141.735 Q854.481 140.868 854.481 140.61 Q854.481 140.142 854.95 140.142 Q855.278 140.142 856.426 141.102 Q857.597 142.062 859.353 144.264 Q861.133 146.466 862.445 149.159 Q865.607 155.694 865.607 164.126 Q865.607 172.231 862.586 178.765 Q861.297 181.506 859.494 183.801 Q857.69 186.097 856.496 187.104 Q855.301 188.111 854.95 188.111 Q854.481 188.111 854.481 187.643 Z" fill="#000000" fill-rule="nonzero" fill-opacity="1" /></svg>
